<mxfile host="drawio-plugin" modified="2022-10-16T10:07:40.456Z" agent="5.0 (Windows NT 6.2; Win64; x64) AppleWebKit/537.36 (KHTML, like Gecko) Chrome/89.0.4389.114 Safari/537.36" etag="lQ7j1zSTI64JGg8Dubbd" version="15.5.4" type="embed"><diagram id="1czklNrwi9EsNagj-m8T" name="第 1 页"><mxGraphModel dx="1784" dy="1103" grid="1" gridSize="10" guides="1" tooltips="1" connect="1" arrows="1" fold="1" page="1" pageScale="1" pageWidth="827" pageHeight="1169" background="#114B5F" math="0" shadow="0"><root><mxCell id="0"/><mxCell id="1" parent="0"/><mxCell id="31" value="Class A" style="swimlane;fontStyle=1;align=center;verticalAlign=middle;childLayout=stackLayout;horizontal=1;startSize=29;horizontalStack=0;resizeParent=1;resizeParentMax=0;resizeLast=0;collapsible=0;marginBottom=0;html=1;rounded=0;sketch=0;fontColor=#E4FDE1;strokeColor=#028090;fillColor=#F45B69;" vertex="1" parent="1"><mxGeometry x="120" y="400" width="140" height="54" as="geometry"/></mxCell><mxCell id="34" value="Class B" style="swimlane;fontStyle=1;align=center;verticalAlign=middle;childLayout=stackLayout;horizontal=1;startSize=29;horizontalStack=0;resizeParent=1;resizeParentMax=0;resizeLast=0;collapsible=0;marginBottom=0;html=1;rounded=0;sketch=0;fontColor=#E4FDE1;strokeColor=#028090;fillColor=#F45B69;" vertex="1" parent="1"><mxGeometry x="440" y="400" width="140" height="54" as="geometry"/></mxCell><mxCell id="39" value="" style="endArrow=block;dashed=1;endFill=0;endSize=12;html=1;rounded=1;sketch=0;fontColor=#E4FDE1;strokeColor=#028090;fillColor=#F45B69;curved=0;entryX=0;entryY=0.75;entryDx=0;entryDy=0;" edge="1" parent="1" target="34"><mxGeometry width="160" relative="1" as="geometry"><mxPoint x="260" y="440" as="sourcePoint"/><mxPoint x="420" y="440" as="targetPoint"/></mxGeometry></mxCell></root></mxGraphModel></diagram></mxfile>